mtllib materials.mtl
v -0.02499998 0 0.01249993
v -0.02165061 -0.01250005 0.01249993
v -0.02165067 -0.01250005 -0.4175002
v -0.02500004 0 -0.4175002
v -0.01249999 -0.02165055 0.01249993
v -0.01250005 -0.02165055 -0.4175002
v 0 -0.0250001 0.01249993
v -5.960464E-08 -0.0250001 -0.4175001
v 0.01249999 -0.02165055 0.01249993
v 0.01249993 -0.02165055 -0.4175002
v 0.02165061 -0.01250005 0.01249993
v 0.02165055 -0.01250005 -0.4175002
v 0.02499998 0 0.01249993
v 0.02499992 0 -0.4175002
v 0.02165061 0.01250005 0.01249993
v 0.02165055 0.01250005 -0.4175002
v 0.01249999 0.02165055 0.01249993
v 0.01249993 0.02165055 -0.4175002
v 0 0.0250001 0.01249993
v -5.960464E-08 0.0250001 -0.4175002
v -0.01249999 0.02165055 0.01249993
v -0.01250005 0.02165055 -0.4175002
v -0.02165061 0.01250005 0.01249993
v -0.02165067 0.01250005 -0.4175002
v -1.192093E-07 0 -0.5675004
v -0.01479143 0.03172088 0.01749992
v -0.0317207 0.01479197 0.0174998
v -0.0317207 0.01479197 0.01249981
v -0.01479143 0.03172088 0.01249993
v -0.03380752 -0.009058475 0.0174998
v -0.03380746 -0.009058475 0.01249981
v -0.02007538 -0.02867007 0.01749992
v -0.02007538 -0.02867007 0.01249993
v 0.003050208 -0.03486681 0.01749992
v 0.003050208 -0.03486681 0.01249993
v 0.02474856 -0.02474904 0.01749992
v 0.02474856 -0.02474904 0.01249993
v 0.03486681 -0.003050804 0.01750004
v 0.03486681 -0.003050804 0.01250005
v 0.02867049 0.02007508 0.01750004
v 0.02867049 0.02007508 0.01250005
v 0.009058893 0.03380728 0.01749992
v 0.009058893 0.03380728 0.01249993
vn -0.9659259 -0.2588186 9.756082E-08
vn -0.7071045 -0.7071092 4.414258E-08
vn -0.2588255 -0.9659241 4.945055E-08
vn 0.2588257 -0.9659241 -2.082554E-08
vn 0.7071045 -0.7071091 -1.522925E-07
vn 0.965926 -0.2588185 -1.645721E-07
vn 0.9659259 0.2588188 -1.63863E-07
vn 0.7071044 0.7071092 -1.503322E-07
vn 0.2588255 0.9659241 -1.961631E-08
vn -0.2588256 0.9659241 4.598966E-08
vn -0.7071046 0.7071091 4.311761E-08
vn -0.9659261 0.2588183 9.214532E-08
vn 1.800558E-08 -5.960463E-08 1
vn -0.9536474 0.2555279 -0.1589409
vn 0.2555403 -0.953644 -0.1589411
vn 0.9536473 0.255528 -0.158941
vn -0.9536473 -0.2555281 -0.158941
vn 0.6981135 0.6981228 -0.1589409
vn 0.2555415 0.9536437 -0.1589411
vn -0.2555418 0.9536436 -0.1589411
vn -0.6981136 0.6981227 -0.1589409
vn 0.9536473 -0.255528 -0.158941
vn 0.6981133 -0.6981229 -0.1589409
vn -0.2555405 -0.953644 -0.158941
vn -0.6981135 -0.6981228 -0.1589409
vn -0.7071016 0.707112 -1.485677E-06
vn -0.9961941 0.08716314 -2.291054E-06
vn -0.8191561 -0.5735707 -2.292687E-06
vn -0.2588262 -0.9659239 -8.635263E-07
vn 0.4226116 -0.906311 7.562338E-07
vn 0.9063047 -0.4226248 1.949379E-06
vn 0.9659277 0.2588121 2.225123E-06
vn 0.5735825 0.8191479 1.609649E-06
vn -0.08714839 0.9961953 7.037656E-08
vn -2.324906E-06 -4.575142E-07 1
vn 2.324581E-06 4.582106E-07 -1
vt -0.2880358 0.02576023
vt -0.2869397 0.0250723
vt -0.2640815 0.06149355
vt -0.2651777 0.06218147
vt -0.01994041 -0.2044913
vt -0.01902075 -0.2035809
vt -0.04927254 -0.1730222
vt -0.05019221 -0.1739327
vt 0.1143736 -0.06649221
vt 0.1148817 -0.06530204
vt 0.07533521 -0.04841793
vt 0.07482707 -0.04960809
vt 0.1650459 0.08264367
vt 0.165447 0.08387401
vt 0.1245653 0.09720381
vt 0.1241641 0.09597345
vt 0.2012654 0.1862865
vt 0.2016783 0.1875129
vt 0.1609265 0.2012348
vt 0.1605135 0.2000083
vt 0.2428548 0.2017444
vt 0.2434162 0.2029104
vt 0.2046729 0.221564
vt 0.2041115 0.220398
vt 0.2869397 0.02507216
vt 0.2880358 0.02576008
vt 0.2651777 0.06218134
vt 0.2640815 0.06149342
vt 0.01902061 -0.2035809
vt 0.01994028 -0.2044913
vt 0.05019209 -0.1739327
vt 0.04927243 -0.1730222
vt -0.1148817 -0.06530207
vt -0.1143736 -0.06649223
vt -0.07482705 -0.04960812
vt -0.07533518 -0.04841795
vt -0.165447 0.08387402
vt -0.1650459 0.08264367
vt -0.1241641 0.09597348
vt -0.1245653 0.09720382
vt -0.2016783 0.1875129
vt -0.2012654 0.1862865
vt -0.1605135 0.2000083
vt -0.1609265 0.2012348
vt -0.2434162 0.2029104
vt -0.2428548 0.2017444
vt -0.2041115 0.220398
vt -0.2046729 0.221564
vt 0.2277439 0.1778831
vt 0.2281532 0.1791108
vt 0.2278937 0.1803786
vt 0.2270351 0.1813468
vt 0.2258074 0.181756
vt 0.2245396 0.1814966
vt 0.2235714 0.180638
vt 0.2231621 0.1794103
vt 0.2234216 0.1781425
vt 0.2242802 0.1771743
vt 0.2255079 0.176765
vt 0.2267757 0.1770245
vt -0.2325852 0.1909219
vt -0.2202277 0.1997843
vt -0.233294 0.1920047
vt 0.08736584 0.1066797
vt 0.08779815 0.1078995
vt 0.07326173 0.1123652
vt 0.2444124 0.1330848
vt 0.2452186 0.1340971
vt 0.2329308 0.1430559
vt -0.2632568 0.03939838
vt -0.2620661 0.03889163
vt -0.2567121 0.05312487
vt -0.03933903 -0.1971767
vt -0.03874157 -0.1983246
vt -0.02556332 -0.1907362
vt -0.1243017 -0.05040364
vt -0.1239521 -0.05164962
vt -0.1094986 -0.0469223
vt -0.1449969 0.09377394
vt -0.1597711 0.09017207
vt -0.1594114 0.08892898
vt -0.1776869 0.1902466
vt -0.1920963 0.1853865
vt -0.1916309 0.184179
vt 0.1630986 0.2511531
vt 0.1634661 0.2523939
vt 0.1487145 0.2560871
vt 0.1250366 0.2150552
vt 0.1253849 0.2163016
vt 0.1105782 0.2197675
vt 0.0284854 -0.03465951
vt 0.02911982 -0.0335316
vt 0.0155604 -0.02664735
vt -0.1031701 -0.1294238
vt -0.1020992 -0.1286974
vt -0.1111639 -0.1164875
vt -0.2023278 0.1878739
vt -0.2015637 0.185605
vt -0.2010899 0.1857645
vt -0.2018539 0.1880335
vt -0.2621615 0.1765947
vt -0.2609144 0.174551
vt -0.2604876 0.1748115
vt -0.2617347 0.1768552
vt -0.1250498 -0.2024457
vt -0.1228741 -0.2014467
vt -0.1230828 -0.2009923
vt -0.1252585 -0.2019913
vt 0.1146171 -0.0671946
vt 0.1155572 -0.06499274
vt 0.1150973 -0.06479641
vt 0.1141572 -0.06699827
vt 0.1778466 0.1235598
vt 0.1785754 0.1258403
vt 0.1780991 0.1259925
vt 0.1773704 0.123712
vt 0.2275788 0.2090342
vt 0.2284829 0.2112511
vt 0.2280199 0.2114398
vt 0.2271158 0.209223
vt 0.2867399 0.02436044
vt 0.2887678 0.02563317
vt 0.2885019 0.02605667
vt 0.2864741 0.02478394
vt -0.04711638 -0.1663363
vt -0.04578256 -0.1683245
vt -0.04536734 -0.1680459
vt -0.04670116 -0.1660577
vt -0.1522495 0.03754273
vt -0.1514717 0.03527844
vt -0.1509988 0.03544086
vt -0.1517766 0.03770516
vt 0.2282762 0.1815831
vt 0.2261709 0.1827231
vt 0.2238253 0.182243
vt 0.2223371 0.1803677
vt 0.2224025 0.1779744
vt 0.223991 0.1761831
vt 0.2263592 0.175832
vt 0.2283991 0.1770852
vt 0.2291562 0.1793565
vt -0.2291562 0.1793565
vt -0.2283991 0.1770852
vt -0.2263592 0.175832
vt -0.223991 0.1761831
vt -0.2224025 0.1779744
vt -0.2223371 0.1803677
vt -0.2238253 0.182243
vt -0.2261709 0.1827231
vt -0.2282762 0.1815831
o group832330870
g mesh832330870
usemtl mat16
f 4/4/1 3/3/1 2/2/1 1/1/1
f 3/8/2 6/7/2 5/6/2 2/5/2
f 6/12/3 8/11/3 7/10/3 5/9/3
f 8/16/4 10/15/4 9/14/4 7/13/4
f 10/20/5 12/19/5 11/18/5 9/17/5
f 12/24/6 14/23/6 13/22/6 11/21/6
f 14/28/7 16/27/7 15/26/7 13/25/7
f 16/32/8 18/31/8 17/30/8 15/29/8
f 18/36/9 20/35/9 19/34/9 17/33/9
f 20/40/10 22/39/10 21/38/10 19/37/10
f 22/44/11 24/43/11 23/42/11 21/41/11
f 24/48/12 4/47/12 1/46/12 23/45/12
f 1/60/13 2/59/13 5/58/13 7/57/13 9/56/13 11/55/13 13/54/13 15/53/13 17/52/13 19/51/13 21/50/13 23/49/13
f 24/63/14 25/62/14 4/61/14
f 25/66/15 10/65/15 8/64/15
f 25/69/16 16/68/16 14/67/16
f 25/72/17 3/71/17 4/70/17
f 25/75/18 18/74/18 16/73/18
f 25/78/19 20/77/19 18/76/19
f 22/81/20 20/80/20 25/79/20
f 24/84/21 22/83/21 25/82/21
f 25/87/22 14/86/22 12/85/22
f 25/90/23 12/89/23 10/88/23
f 25/93/24 8/92/24 6/91/24
f 25/96/25 6/95/25 3/94/25
o group1505152189
g mesh1505152189
usemtl mat16
f 29/100/26 28/99/26 27/98/26 26/97/26
f 28/104/27 31/103/27 30/102/27 27/101/27
f 31/108/28 33/107/28 32/106/28 30/105/28
f 33/112/29 35/111/29 34/110/29 32/109/29
f 35/116/30 37/115/30 36/114/30 34/113/30
f 37/120/31 39/119/31 38/118/31 36/117/31
f 39/124/32 41/123/32 40/122/32 38/121/32
f 41/128/33 43/127/33 42/126/33 40/125/33
f 43/132/34 29/131/34 26/130/34 42/129/34
f 26/141/35 27/140/35 30/139/35 32/138/35 34/137/35 36/136/35 38/135/35 40/134/35 42/133/35
f 43/150/36 41/149/36 39/148/36 37/147/36 35/146/36 33/145/36 31/144/36 28/143/36 29/142/36
