{
	"asset": {
		"generator": "Blocks 4.0.1RC0 SVR",
		"version": "1.1",
		"copyright": "Unknown"
	},
	"buffers": {
		"model": {
			"byteLength": 617400,
			"type": "arraybuffer",
			"uri": "model.bin"
		}
	},
	"accessors": {
		"accessor_position_m0-PolyPaper21_-542352": {
			"bufferView": "vec3BufferView",
			"byteOffset": 0,
			"byteStride": 12,
			"componentType": 5126,
			"count": 3062,
			"max": [ 2.296027, 2.800421, 3.174939 ],
			"min": [ -1.467252, 1.004173, -2.71032 ],
			"type": "VEC3"
		 },
		"accessor_normal_m0-PolyPaper21_-542352": {
			"bufferView": "vec3BufferView",
			"byteOffset": 36744,
			"byteStride": 12,
			"componentType": 5126,
			"count": 3062,
			"max": [ 1, 1, 1 ],
			"min": [ -1, -1, -1 ],
			"type": "VEC3"
		 },
		"accessor_color_m0-PolyPaper21_-542352": {
			"bufferView": "vec4BufferView",
			"byteOffset": 0,
			"byteStride": 16,
			"componentType": 5126,
			"count": 3062,
			"max": [ 1, 1, 1, 1 ],
			"min": [ 0.4745098, 0.1529412, 0.282353, 1 ],
			"type": "VEC4"
		 },
		"accessor_indices_0_m0-PolyPaper21_-542352": {
			"bufferView": "ushortBufferView",
			"byteOffset": 0,
			"byteStride": 0,
			"componentType": 5123,
			"count": 4584,
			"max": [ 3061 ],
			"min": [ 0 ],
			"type": "SCALAR"
		 },
		"accessor_position_m2-PolyPaper20_-542364": {
			"bufferView": "vec3BufferView",
			"byteOffset": 73488,
			"byteStride": 12,
			"componentType": 5126,
			"count": 3064,
			"max": [ 2.190984, 3.032865, 3.163795 ],
			"min": [ -1.584733, 1.020494, -2.666816 ],
			"type": "VEC3"
		 },
		"accessor_normal_m2-PolyPaper20_-542364": {
			"bufferView": "vec3BufferView",
			"byteOffset": 110256,
			"byteStride": 12,
			"componentType": 5126,
			"count": 3064,
			"max": [ 1, 1, 1 ],
			"min": [ -1, -1, -1 ],
			"type": "VEC3"
		 },
		"accessor_color_m2-PolyPaper20_-542364": {
			"bufferView": "vec4BufferView",
			"byteOffset": 48992,
			"byteStride": 16,
			"componentType": 5126,
			"count": 3064,
			"max": [ 1, 1, 1, 1 ],
			"min": [ 0.4745098, 0.3333333, 0.282353, 1 ],
			"type": "VEC4"
		 },
		"accessor_indices_0_m2-PolyPaper20_-542364": {
			"bufferView": "ushortBufferView",
			"byteOffset": 9168,
			"byteStride": 0,
			"componentType": 5123,
			"count": 4572,
			"max": [ 3063 ],
			"min": [ 0 ],
			"type": "SCALAR"
		 },
		"accessor_position_m3-PolyPaper20_-542370": {
			"bufferView": "vec3BufferView",
			"byteOffset": 147024,
			"byteStride": 12,
			"componentType": 5126,
			"count": 3084,
			"max": [ 2.178, 4.18338, 3.036555 ],
			"min": [ -1.427513, 1.063241, -2.666917 ],
			"type": "VEC3"
		 },
		"accessor_normal_m3-PolyPaper20_-542370": {
			"bufferView": "vec3BufferView",
			"byteOffset": 184032,
			"byteStride": 12,
			"componentType": 5126,
			"count": 3084,
			"max": [ 0.9999086, 0.9997504, 0.9999175 ],
			"min": [ -0.9999086, -0.9997504, -0.9999175 ],
			"type": "VEC3"
		 },
		"accessor_color_m3-PolyPaper20_-542370": {
			"bufferView": "vec4BufferView",
			"byteOffset": 98016,
			"byteStride": 16,
			"componentType": 5126,
			"count": 3084,
			"max": [ 1, 1, 1, 1 ],
			"min": [ 0.4745098, 0.3333333, 0.282353, 1 ],
			"type": "VEC4"
		 },
		"accessor_indices_0_m3-PolyPaper20_-542370": {
			"bufferView": "ushortBufferView",
			"byteOffset": 18312,
			"byteStride": 0,
			"componentType": 5123,
			"count": 4572,
			"max": [ 3083 ],
			"min": [ 0 ],
			"type": "SCALAR"
		 },
		"accessor_position_m4-PolyPaper20_-542376": {
			"bufferView": "vec3BufferView",
			"byteOffset": 221040,
			"byteStride": 12,
			"componentType": 5126,
			"count": 5148,
			"max": [ 2.231435, 4.088005, 3.080945 ],
			"min": [ -1.511069, 1.038065, -3.354365 ],
			"type": "VEC3"
		 },
		"accessor_normal_m4-PolyPaper20_-542376": {
			"bufferView": "vec3BufferView",
			"byteOffset": 282816,
			"byteStride": 12,
			"componentType": 5126,
			"count": 5148,
			"max": [ 1, 1, 1 ],
			"min": [ -1, -1, -1 ],
			"type": "VEC3"
		 },
		"accessor_color_m4-PolyPaper20_-542376": {
			"bufferView": "vec4BufferView",
			"byteOffset": 147360,
			"byteStride": 16,
			"componentType": 5126,
			"count": 5148,
			"max": [ 1, 1, 1, 1 ],
			"min": [ 0.4745098, 0.3333333, 0.282353, 1 ],
			"type": "VEC4"
		 },
		"accessor_indices_0_m4-PolyPaper20_-542376": {
			"bufferView": "ushortBufferView",
			"byteOffset": 27456,
			"byteStride": 0,
			"componentType": 5123,
			"count": 7812,
			"max": [ 5147 ],
			"min": [ 0 ],
			"type": "SCALAR"
		 }
	},
	"bufferViews": {
		"ushortBufferView": {
			"buffer": "model",
			"byteLength": 43080,
			"byteOffset": 0,
			"target": 34963
		},
		"vec3BufferView": {
			"buffer": "model",
			"byteLength": 344592,
			"byteOffset": 43080,
			"target": 34962
		},
		"vec4BufferView": {
			"buffer": "model",
			"byteLength": 229728,
			"byteOffset": 387672,
			"target": 34962
		}
	},
	"meshes": {
		"mesh_m0-PolyPaper21_-542352": {
			"name": "mesh_m0-PolyPaper21_-542352",
			"primitives": [
				{
					"attributes": {
						"POSITION": "accessor_position_m0-PolyPaper21_-542352",
						"NORMAL": "accessor_normal_m0-PolyPaper21_-542352",
						"COLOR": "accessor_color_m0-PolyPaper21_-542352"
					},
					"indices": "accessor_indices_0_m0-PolyPaper21_-542352",
					"material": "material_mat21",
					"mode": 4
				}
			]
		},
		"mesh_m2-PolyPaper20_-542364": {
			"name": "mesh_m2-PolyPaper20_-542364",
			"primitives": [
				{
					"attributes": {
						"POSITION": "accessor_position_m2-PolyPaper20_-542364",
						"NORMAL": "accessor_normal_m2-PolyPaper20_-542364",
						"COLOR": "accessor_color_m2-PolyPaper20_-542364"
					},
					"indices": "accessor_indices_0_m2-PolyPaper20_-542364",
					"material": "material_mat20",
					"mode": 4
				}
			]
		},
		"mesh_m3-PolyPaper20_-542370": {
			"name": "mesh_m3-PolyPaper20_-542370",
			"primitives": [
				{
					"attributes": {
						"POSITION": "accessor_position_m3-PolyPaper20_-542370",
						"NORMAL": "accessor_normal_m3-PolyPaper20_-542370",
						"COLOR": "accessor_color_m3-PolyPaper20_-542370"
					},
					"indices": "accessor_indices_0_m3-PolyPaper20_-542370",
					"material": "material_mat20",
					"mode": 4
				}
			]
		},
		"mesh_m4-PolyPaper20_-542376": {
			"name": "mesh_m4-PolyPaper20_-542376",
			"primitives": [
				{
					"attributes": {
						"POSITION": "accessor_position_m4-PolyPaper20_-542376",
						"NORMAL": "accessor_normal_m4-PolyPaper20_-542376",
						"COLOR": "accessor_color_m4-PolyPaper20_-542376"
					},
					"indices": "accessor_indices_0_m4-PolyPaper20_-542376",
					"material": "material_mat20",
					"mode": 4
				}
			]
		}
	},
	"shaders": {
		"vertex_mat21": {
			"type": 35633,
			"uri": "https://vr.google.com/shaders/w/vs.glsl"
		},
		"fragment_mat21": {
			"type": 35632,
			"uri": "https://vr.google.com/shaders/w/fs.glsl"
		},
		"vertex_mat24": {
			"type": 35633,
			"uri": "https://vr.google.com/shaders/w/glassVS.glsl"
		},
		"fragment_mat24": {
			"type": 35632,
			"uri": "https://vr.google.com/shaders/w/glassFS.glsl"
		},
		"vertex_mat20": {
			"type": 35633,
			"uri": "https://vr.google.com/shaders/w/vs.glsl"
		},
		"fragment_mat20": {
			"type": 35632,
			"uri": "https://vr.google.com/shaders/w/fs.glsl"
		}
	},
	"programs": {
		"program_mat21": {
			"attributes": [
				"a_position",
				"a_normal",
				"a_color"				
			],
			"vertexShader": "vertex_mat21",
			"fragmentShader": "fragment_mat21"
		},
		"program_mat24": {
			"attributes": [
				"a_position",
				"a_normal",
				"a_color"				
			],
			"vertexShader": "vertex_mat24",
			"fragmentShader": "fragment_mat24"
		},
		"program_mat20": {
			"attributes": [
				"a_position",
				"a_normal",
				"a_color"				
			],
			"vertexShader": "vertex_mat20",
			"fragmentShader": "fragment_mat20"
		}
	},
	"techniques": {
		"technique_mat21": {
			"program": "program_mat21",
			"extras": {"gvrss" : "https://vr.google.com/shaders/w/gvrss/paper.json"},
			"parameters": {
				"position": {
					"type": 35665,
					"semantic": "POSITION"
				},
				"normal": {
					"type": 35665,
					"semantic": "NORMAL"
				},
				"color": {
					"type": 35666,
					"semantic": "COLOR"
				},
				"modelViewMatrix": {
					"type": 35676,
					"semantic": "MODELVIEW"
				},
				"projectionMatrix": {
					"type": 35676,
					"semantic": "PROJECTION"
				},
				"normalMatrix": {
					"type": 35675,
					"semantic": "MODELVIEWINVERSETRANSPOSE"
				},
				"color": {
					"type": 35666
				},
				"roughness": {
					"type": 5126
				},
				"metallic": {
					"type": 5126
				},
				"light0Pos": {
					"type": 35666
				},
				"light0Color": {
					"type": 35666
				},
				"light1Pos": {
					"type": 35666
				},
				"light1Color": {
					"type": 35666
				}				
			},
			"attributes": {
				"a_position": "position",
				"a_normal": "normal",
				"a_color": "color"				
			},
			"uniforms": {
				"u_modelViewMatrix": "modelViewMatrix",
				"u_projectionMatrix": "projectionMatrix",
				"u_normalMatrix": "normalMatrix",
				"u_color": "color",
				"u_roughness": "roughness",
				"u_metallic": "metallic",
				"u_light0Pos": "light0Pos",
				"u_light0Color": "light0Color",
				"u_light1Pos": "light1Pos",
				"u_light1Color": "light1Color"				
			},
			"states": {
				"enable": [
					2929,
					2884
				],
				"functions": {
					"cullFace": [1029]
				}
			}
		},
		"technique_mat24": {
			"program": "program_mat24",
			"extras": {"gvrss" : "https://vr.google.com/shaders/w/gvrss/glass.json"},
			"parameters": {
				"position": {
					"type": 35665,
					"semantic": "POSITION"
				},
				"normal": {
					"type": 35665,
					"semantic": "NORMAL"
				},
				"color": {
					"type": 35666,
					"semantic": "COLOR"
				},
				"modelViewMatrix": {
					"type": 35676,
					"semantic": "MODELVIEW"
				},
				"projectionMatrix": {
					"type": 35676,
					"semantic": "PROJECTION"
				},
				"normalMatrix": {
					"type": 35675,
					"semantic": "MODELVIEWINVERSETRANSPOSE"
				},
				"color": {
					"type": 35666
				},
				"roughness": {
					"type": 5126
				},
				"metallic": {
					"type": 5126
				},
				"light0Pos": {
					"type": 35666
				},
				"light0Color": {
					"type": 35666
				},
				"light1Pos": {
					"type": 35666
				},
				"light1Color": {
					"type": 35666
				}				
			},
			"attributes": {
				"a_position": "position",
				"a_normal": "normal",
				"a_color": "color"				
			},
			"uniforms": {
				"u_modelViewMatrix": "modelViewMatrix",
				"u_projectionMatrix": "projectionMatrix",
				"u_normalMatrix": "normalMatrix",
				"u_color": "color",
				"u_roughness": "roughness",
				"u_metallic": "metallic",
				"u_light0Pos": "light0Pos",
				"u_light0Color": "light0Color",
				"u_light1Pos": "light1Pos",
				"u_light1Color": "light1Color"				
			},
			"states": {
				"enable": [
					2929,
					3042
				],
				"functions": {
					"blendFuncSeparate": [775, 774, 773, 772],
					"depthMask": [true]
				}
			}
		},
		"technique_mat20": {
			"program": "program_mat20",
			"extras": {"gvrss" : "https://vr.google.com/shaders/w/gvrss/paper.json"},
			"parameters": {
				"position": {
					"type": 35665,
					"semantic": "POSITION"
				},
				"normal": {
					"type": 35665,
					"semantic": "NORMAL"
				},
				"color": {
					"type": 35666,
					"semantic": "COLOR"
				},
				"modelViewMatrix": {
					"type": 35676,
					"semantic": "MODELVIEW"
				},
				"projectionMatrix": {
					"type": 35676,
					"semantic": "PROJECTION"
				},
				"normalMatrix": {
					"type": 35675,
					"semantic": "MODELVIEWINVERSETRANSPOSE"
				},
				"color": {
					"type": 35666
				},
				"roughness": {
					"type": 5126
				},
				"metallic": {
					"type": 5126
				},
				"light0Pos": {
					"type": 35666
				},
				"light0Color": {
					"type": 35666
				},
				"light1Pos": {
					"type": 35666
				},
				"light1Color": {
					"type": 35666
				}				
			},
			"attributes": {
				"a_position": "position",
				"a_normal": "normal",
				"a_color": "color"				
			},
			"uniforms": {
				"u_modelViewMatrix": "modelViewMatrix",
				"u_projectionMatrix": "projectionMatrix",
				"u_normalMatrix": "normalMatrix",
				"u_color": "color",
				"u_roughness": "roughness",
				"u_metallic": "metallic",
				"u_light0Pos": "light0Pos",
				"u_light0Color": "light0Color",
				"u_light1Pos": "light1Pos",
				"u_light1Color": "light1Color"				
			},
			"states": {
				"enable": [
					2929,
					2884
				],
				"functions": {
					"cullFace": [1029]
				}
			}
		}
	},
	"materials": {
		"material_mat21": {
			"technique": "technique_mat21",
			"values": {
				"color": [1, 1, 1, 1],
				"roughness": 1,
				"metallic": 0,
				"light0Pos": [-0.02, 4.11, -0.54, 0],
				"light0Color": [1.28, 1.232075, 1.101177, 0],
				"light1Pos": [0.02, -4.11, 0.54, 0],
				"light1Color": [0.2941177, 0.2953672, 0.32, 0]				
			},
			"name": "material_mat21"
		},
		"material_mat24": {
			"technique": "technique_mat24",
			"values": {
				"color": [0.8392157, 0.8392157, 0.8392157, 0.2509804],
				"roughness": 0,
				"metallic": 0,
				"light0Pos": [-0.02, 4.11, -0.54, 0],
				"light0Color": [1.28, 1.232075, 1.101177, 0],
				"light1Pos": [0.02, -4.11, 0.54, 0],
				"light1Color": [0.2941177, 0.2953672, 0.32, 0]				
			},
			"name": "material_mat24"
		},
		"material_mat20": {
			"technique": "technique_mat20",
			"values": {
				"color": [0.4745098, 0.3333333, 0.282353, 1],
				"roughness": 1,
				"metallic": 0,
				"light0Pos": [-0.02, 4.11, -0.54, 0],
				"light0Color": [1.28, 1.232075, 1.101177, 0],
				"light1Pos": [0.02, -4.11, 0.54, 0],
				"light1Color": [0.2941177, 0.2953672, 0.32, 0]				
			},
			"name": "material_mat20"
		}
	},
	"nodes": {
		"node_MeshObject-1405298688-PolyPaper21": {
			"name": "node_MeshObject-1405298688-PolyPaper21",
			"meshes": [
				"mesh_m0-PolyPaper21_-542352"
			],
			"matrix": [1, 0, 0, 0, 0, 1, 0, 0, 0, 0, 1, 0, 0, 0, 0, 1]
		},
		"node_MeshObject-261140480-PolyPaper20": {
			"name": "node_MeshObject-261140480-PolyPaper20",
			"meshes": [
				"mesh_m2-PolyPaper20_-542364"
			],
			"matrix": [1, 0, 0, 0, 0, 1, 0, 0, 0, 0, 1, 0, 0, 0, 0, 1]
		},
		"node_MeshObject1745510400-PolyPaper20": {
			"name": "node_MeshObject1745510400-PolyPaper20",
			"meshes": [
				"mesh_m3-PolyPaper20_-542370"
			],
			"matrix": [1, 0, 0, 0, 0, 1, 0, 0, 0, 0, 1, 0, 0, 0, 0, 1]
		},
		"node_MeshObject-1123633152-PolyPaper20": {
			"name": "node_MeshObject-1123633152-PolyPaper20",
			"meshes": [
				"mesh_m4-PolyPaper20_-542376"
			],
			"matrix": [1, 0, 0, 0, 0, 1, 0, 0, 0, 0, 1, 0, 0, 0, 0, 1]
		}
	},
	"scene": "defaultScene",
	"scenes": {
		"defaultScene": {
			"nodes": [
				"node_MeshObject-1405298688-PolyPaper21",
				"node_MeshObject-261140480-PolyPaper20",
				"node_MeshObject1745510400-PolyPaper20",
				"node_MeshObject-1123633152-PolyPaper20"
			],
			"extras": {

			}
		}
	}
}