mtllib materials.mtl
v -0.001600027 2.481761 0.03652036
v -2.120848 -2.502062 1.250055
v -2.479861 -2.484142 0.01657128
v -1.193126 -2.514542 2.138803
v 0.05472097 -2.518239 2.444674
v 1.288335 -2.512161 2.085711
v 2.177169 -2.497938 1.158098
v 2.483061 -2.47938 -0.08961213
v 2.124048 -2.46146 -1.323096
v 1.196326 -2.44898 -2.211843
v -0.05152085 -2.445283 -2.517714
v -1.285134 -2.451361 -2.158752
v -2.17397 -2.465584 -1.231138
vn -0.8648895 0.4305914 0.2579868
vn -0.6232421 0.4248824 0.6565396
vn -0.2146723 0.4218444 0.8808877
vn 0.2513427 0.4222916 0.8709172
vn 0.6499363 0.4261041 0.6292996
vn 0.8743049 0.4322603 0.2207761
vn 0.8643288 0.4391108 -0.2451886
vn 0.6226811 0.4448199 -0.6437418
vn 0.2141116 0.4478578 -0.8680896
vn -0.2519034 0.4474107 -0.8581191
vn -0.650497 0.4435982 -0.6165016
vn -0.8748656 0.4374419 -0.2079777
vn 0.0006446413 -0.9998916 -0.01471384
vt -0.1437954 0.2769495
vt -0.1651633 -0.2776378
vt -0.03706957 -0.267691
vt 0.07014202 0.264175
vt -0.2506027 -0.1887561
vt -0.1378618 -0.2503715
vt 0.2084422 0.1538653
vt -0.263256 -0.1385804
vt -0.1833723 -0.2392061
vt 0.2789457 0.03623348
vt -0.2504617 -0.1303542
vt -0.1979713 -0.2476219
vt 0.3171832 -0.05527387
vt -0.233093 -0.1275228
vt -0.2017355 -0.2521167
vt 0.3394613 -0.1123364
vt -0.2154761 -0.1040805
vt -0.202505 -0.2319034
vt 0.3186885 -0.2029486
vt -0.2018032 -0.01030324
vt -0.2321533 -0.1351464
vt -0.3745925 0.08874337
vt 0.1715791 -0.009848064
vt 0.1796145 0.1183798
vt -0.3794523 0.07105568
vt 0.1465495 -0.1059918
vt 0.1731655 0.01970038
vt -0.3791883 0.0610406
vt 0.111073 -0.1990894
vt 0.1577504 -0.07938915
vt -0.3637366 0.08884834
vt 0.05604663 -0.2742023
vt 0.1282781 -0.1679498
vt -0.3038767 0.1743898
vt -0.03591742 -0.3116364
vt 0.0686589 -0.2369992
vt 0.03634779 -0.3237512
vt 0.1645457 -0.3322495
vt 0.2798176 -0.2755102
vt 0.3512763 -0.1687367
vt 0.3597746 -0.04053865
vt 0.3030354 0.07473319
vt 0.1962618 0.1461919
vt 0.0680638 0.1546902
vt -0.04720805 0.09795092
vt -0.1186667 -0.008822629
vt -0.127165 -0.1370205
vt -0.07042575 -0.2522926
o group804152721
g mesh804152721
usemtl mat24
f 3/3/1 2/2/1 1/1/1
f 2/6/2 4/5/2 1/4/2
f 4/9/3 5/8/3 1/7/3
f 5/12/4 6/11/4 1/10/4
f 6/15/5 7/14/5 1/13/5
f 7/18/6 8/17/6 1/16/6
f 8/21/7 9/20/7 1/19/7
f 9/24/8 10/23/8 1/22/8
f 10/27/9 11/26/9 1/25/9
f 11/30/10 12/29/10 1/28/10
f 12/33/11 13/32/11 1/31/11
f 13/36/12 3/35/12 1/34/12
f 13/48/13 12/47/13 11/46/13 10/45/13 9/44/13 8/43/13 7/42/13 6/41/13 5/40/13 4/39/13 2/38/13 3/37/13
