mtllib materials.mtl
v -5.960464E-08 3 0.3400023
v 0.17 3 0.294451
v 0.17 -2.29 0.2944482
v -5.960464E-08 -2.29 0.3399995
v 0.2944486 3 0.1700023
v 0.2944486 -2.29 0.1699995
v 0.34 3 2.324581E-06
v 0.34 -2.29 -4.172325E-07
v 0.2944487 3 -0.1699977
v 0.2944487 -2.29 -0.1700004
v 0.1700001 3 -0.2944463
v 0.1700001 -2.29 -0.2944491
v 2.980232E-08 3 -0.3399978
v 2.980232E-08 -2.29 -0.3400005
v -0.17 3 -0.2944463
v -0.17 -2.29 -0.2944491
v -0.2944486 3 -0.1699978
v -0.2944486 -2.29 -0.1700005
v -0.34 3 2.205372E-06
v -0.34 -2.29 -5.364418E-07
v -0.2944487 3 0.1700022
v -0.2944487 -2.29 0.1699994
v -0.17 3 0.294451
v -0.17 -2.29 0.2944482
vn 0.2588189 -5.056906E-07 0.9659259
vn 0.2588187 -5.115241E-07 0.9659259
vn 0.7071068 -3.752903E-07 0.7071068
vn 0.7071069 -3.70478E-07 0.7071067
vn 0.9659258 -1.343796E-07 0.2588192
vn 0.9659258 -1.370626E-07 0.2588193
vn 0.9659259 1.343794E-07 -0.2588189
vn 0.9659259 1.341461E-07 -0.2588188
vn 0.7071069 3.671316E-07 -0.7071066
vn 0.7071069 3.664943E-07 -0.7071066
vn 0.2588193 5.008147E-07 -0.9659258
vn 0.2588193 5.006405E-07 -0.9659258
vn -0.2588193 5.008147E-07 -0.9659258
vn -0.2588193 5.006405E-07 -0.9659258
vn -0.7071068 3.671317E-07 -0.7071068
vn -0.7071067 3.664943E-07 -0.7071068
vn -0.9659258 1.336331E-07 -0.2588193
vn -0.9659258 1.341463E-07 -0.2588193
vn -0.9659259 -1.366191E-07 0.2588189
vn -0.9659259 -1.341462E-07 0.2588189
vn -0.7071069 -3.701911E-07 0.7071066
vn -0.707107 -3.744615E-07 0.7071065
vn -0.258819 -5.119594E-07 0.9659258
vn -0.2588188 -5.060824E-07 0.9659259
vn 0 1 0
vn -1.9158E-06 1 3.31826E-06
vn 1.106087E-06 1 2.963754E-07
vn 5.927504E-07 1 5.927503E-07
vn 1.878944E-07 1 7.01231E-07
vn -1.878944E-07 1 7.01231E-07
vn -5.927504E-07 1 5.927501E-07
vn -1.106087E-06 1 2.963749E-07
vn 1.915799E-06 1 3.318262E-06
vn 0 1 0
vn 0 -1 0
vn 0 -1 0
vn 0 -1 0
vn 0 -1 0
vn 0 -1 0
vn 0 -1 0
vn 0 -1 0
vn 0 -1 0
vn 0 -1 0
vn 0 -1 0
vt 0.6978723 0.5933185
vt 0.6941133 0.601275
vt 0.4549586 0.4882916
vt 0.6978723 0.5933184
vt 0.4549586 0.4882916
vt 0.4587176 0.480335
vt 0.6881296 0.6123894
vt 0.6840635 0.6201934
vt 0.4494932 0.4979763
vt 0.6881296 0.6123894
vt 0.4494932 0.4979763
vt 0.4535594 0.4901722
vt 0.6550805 0.6557383
vt 0.6494679 0.662516
vt 0.4457499 0.4938174
vt 0.6550805 0.6557383
vt 0.4457499 0.4938174
vt 0.4513625 0.4870398
vt 0.5149575 0.71942
vt 0.5062855 0.7209142
vt 0.4613714 0.4602555
vt 0.5149575 0.71942
vt 0.4613714 0.4602555
vt 0.4700435 0.4587612
vt 0.340413 0.6505838
vt 0.3339018 0.6446642
vt 0.5118287 0.4489546
vt 0.340413 0.6505838
vt 0.5118287 0.4489546
vt 0.5183399 0.4548741
vt 0.3074618 0.6040177
vt 0.3030901 0.5963805
vt 0.5326427 0.4649809
vt 0.3074618 0.6040177
vt 0.5326427 0.4649809
vt 0.5370144 0.472618
vt 0.3058867 0.6012751
vt 0.3021277 0.5933185
vt 0.5412825 0.480335
vt 0.3058867 0.6012751
vt 0.5412825 0.480335
vt 0.5450414 0.4882916
vt 0.3159365 0.6201934
vt 0.3118704 0.6123894
vt 0.5464407 0.4901722
vt 0.3159365 0.6201934
vt 0.5464407 0.4901722
vt 0.5505068 0.4979763
vt 0.350532 0.6625159
vt 0.3449195 0.6557383
vt 0.5486375 0.4870398
vt 0.350532 0.662516
vt 0.5486375 0.4870398
vt 0.5542501 0.4938174
vt 0.4937145 0.7209142
vt 0.4850425 0.71942
vt 0.5299566 0.4587612
vt 0.4937145 0.7209142
vt 0.5299566 0.4587612
vt 0.5386286 0.4602555
vt 0.6660982 0.6446642
vt 0.659587 0.6505838
vt 0.4816602 0.4548742
vt 0.6660982 0.6446642
vt 0.4816602 0.4548742
vt 0.4881714 0.4489546
vt 0.6969098 0.5963805
vt 0.6925383 0.6040177
vt 0.4629856 0.4726181
vt 0.6969099 0.5963805
vt 0.4629856 0.4726181
vt 0.4673573 0.4649809
vt 0.5104752 0.5007057
vt 0.5154789 0.4934669
vt 0.5234317 0.4896998
vt 0.5104758 0.5007064
vt 0.5234323 0.4897005
vt 0.5322031 0.4904145
vt 0.5104753 0.5007055
vt 0.5322027 0.4904136
vt 0.5394415 0.4954174
vt 0.5104753 0.5007057
vt 0.5394415 0.4954175
vt 0.5432085 0.5033702
vt 0.5104753 0.5007057
vt 0.5432085 0.5033703
vt 0.5424946 0.5121412
vt 0.5104753 0.5007058
vt 0.5424945 0.5121412
vt 0.5374908 0.51938
vt 0.5104753 0.5007059
vt 0.5374907 0.5193801
vt 0.529538 0.5231472
vt 0.5104752 0.500706
vt 0.5295379 0.5231473
vt 0.5207671 0.5224333
vt 0.510476 0.5007056
vt 0.5207679 0.5224329
vt 0.5135291 0.5174292
vt 0.5104752 0.5007057
vt 0.5135283 0.5174293
vt 0.5097612 0.5094765
vt 0.4845209 0.493467
vt 0.4895247 0.5007058
vt 0.4902386 0.5094766
vt 0.4845209 0.493467
vt 0.4902386 0.5094766
vt 0.4864716 0.5174294
vt 0.4845209 0.493467
vt 0.4864716 0.5174294
vt 0.4792328 0.5224331
vt 0.4845209 0.493467
vt 0.4792328 0.5224331
vt 0.4704619 0.523147
vt 0.4845209 0.493467
vt 0.4704619 0.523147
vt 0.4625092 0.51938
vt 0.4845209 0.493467
vt 0.4625092 0.51938
vt 0.4575054 0.5121412
vt 0.4845209 0.493467
vt 0.4575054 0.5121412
vt 0.4567915 0.5033703
vt 0.4845209 0.493467
vt 0.4567915 0.5033703
vt 0.4605586 0.4954176
vt 0.4845209 0.493467
vt 0.4605586 0.4954176
vt 0.4677973 0.4904139
vt 0.4845209 0.493467
vt 0.4677973 0.4904139
vt 0.4765682 0.4896999
o group1373352736
g mesh1373352736
usemtl mat20
f 3/3/1 2/2/1 1/1/1
f 4/6/2 3/5/2 1/4/2
f 6/9/3 5/8/3 2/7/3
f 3/12/4 6/11/4 2/10/4
f 8/15/5 7/14/5 5/13/5
f 6/18/6 8/17/6 5/16/6
f 10/21/7 9/20/7 7/19/7
f 8/24/8 10/23/8 7/22/8
f 12/27/9 11/26/9 9/25/9
f 10/30/10 12/29/10 9/28/10
f 14/33/11 13/32/11 11/31/11
f 12/36/12 14/35/12 11/34/12
f 16/39/13 15/38/13 13/37/13
f 14/42/14 16/41/14 13/40/14
f 18/45/15 17/44/15 15/43/15
f 16/48/16 18/47/16 15/46/16
f 20/51/17 19/50/17 17/49/17
f 18/54/18 20/53/18 17/52/18
f 22/57/19 21/56/19 19/55/19
f 20/60/20 22/59/20 19/58/20
f 24/63/21 23/62/21 21/61/21
f 22/66/22 24/65/22 21/64/22
f 4/69/23 1/68/23 23/67/23
f 24/72/24 4/71/24 23/70/24
f 21/75/25 23/74/25 1/73/25
f 19/78/26 21/77/26 1/76/26
f 17/81/27 19/80/27 1/79/27
f 15/84/28 17/83/28 1/82/28
f 13/87/29 15/86/29 1/85/29
f 11/90/30 13/89/30 1/88/30
f 9/93/31 11/92/31 1/91/31
f 7/96/32 9/95/32 1/94/32
f 5/99/33 7/98/33 1/97/33
f 2/102/34 5/101/34 1/100/34
f 3/105/35 4/104/35 24/103/35
f 6/108/36 3/107/36 24/106/36
f 8/111/37 6/110/37 24/109/37
f 10/114/38 8/113/38 24/112/38
f 12/117/39 10/116/39 24/115/39
f 14/120/40 12/119/40 24/118/40
f 16/123/41 14/122/41 24/121/41
f 18/126/42 16/125/42 24/124/42
f 20/129/43 18/128/43 24/127/43
f 22/132/44 20/131/44 24/130/44
